<!-- credits: http://thecraftchop.com/entries/svg/polar-bear-head -->

<svg xmlns="http://www.w3.org/2000/svg" xmlns:xlink="http://www.w3.org/1999/xlink" version="1.1" id="Layer_1"
  width="1em" height="1em" x="0px" y="0px" viewBox="0 0 864 864" style="enable-background:new 0 0 864 864;"
  xml:space="preserve">
  <style type="text/css">
    .st0 {
      fill: #FFFFFF;
      stroke: #231F20;
      stroke-width: 5.4602;
      stroke-miterlimit: 10;
    }

    .st1 {
      fill: #D0D2D3;
    }

    .st2 {
      fill: #231F20;
    }

    .st3 {
      fill: #DB9B93;
    }
  </style>
  <path class="st0"
    d="M677.3,268.1c0-38.5-31.2-69.8-69.8-69.8c-26.9,0-50.3,15.3-61.9,37.6c-37.6-23.8-82.2-37.6-130-37.6  c-45.1,0-87.4,12.3-123.6,33.7c-11.7-22-34.9-37-61.6-37c-38.5,0-69.8,31.2-69.8,69.8c0,27.8,16.3,51.9,39.9,63  c-18,34-28.2,72.7-28.2,113.9c0,134.4,109,243.4,243.4,243.4S659,576.1,659,441.7c0-39.1-9.2-76.1-25.6-108.8  C659.1,322.6,677.3,297.5,677.3,268.1z" />
  <g>
    <ellipse class="st1" cx="418.5" cy="489" rx="131.1" ry="96.5" />
    <g>
      <g>
        <circle class="st2" cx="370.4" cy="341.9" r="15.2" />
        <circle class="st2" cx="455.1" cy="342.4" r="15.2" />
      </g>
      <path class="st2"
        d="M490,498.3c-1.8-2.4-5.3-2.8-7.7-1c-21.6,16.6-36.3,5.3-48.1-3.8c-0.3-0.3-0.7-0.5-1-0.8    c12.7-10.2,26.5-28.6,24-31.1c-24.2-24.2-68.9-10-78.9,0c-6.4,6.4,7.2,20.1,21.1,29.2c-5.7,3.1-9.5,7.2-12.7,10.6    c-6.6,7.3-10,10.9-32.3-4.3c-2.5-1.7-5.9-1-7.6,1.4c-1.7,2.5-1,5.9,1.4,7.6c13.3,9,22.2,12.5,29,12.5c7.5,0,11.9-4.7,17.5-9.9    c15-13.9,31.4-7.6,32.7-6.6c11.6,8.9,33.1,25.5,61.5,3.8C491.4,504.1,491.8,500.7,490,498.3z" />
    </g>
    <g>
      <circle class="st3" cx="231.6" cy="264.2" r="42.7" />
      <circle class="st3" cx="612.9" cy="267.5" r="42.7" />
    </g>
  </g>
</svg>